<svg width="50" height="56" viewBox="0 0 50 56" fill="none" xmlns="http://www.w3.org/2000/svg">
<circle cx="42.5" cy="7.5" r="7.5" fill="#B30000"/>
<path d="M44.6875 25.9582C44.6877 25.9544 44.6877 25.9506 44.6875 25.9469V20.3555C44.6875 20.2522 44.6642 20.1502 44.6191 20.0572C44.574 19.9643 44.5085 19.8827 44.4273 19.8187L39.4781 15.9125C39.3575 15.8174 39.2083 15.7656 39.0547 15.7656H35.6172V10.8828C35.6163 10.0802 35.297 9.31072 34.7295 8.74318C34.1619 8.17565 33.3925 7.8564 32.5898 7.85547H10.4981C9.69544 7.8564 8.92596 8.17565 8.35843 8.74318C7.79089 9.31072 7.47164 10.0802 7.47071 10.8828V23.6145V23.6535V50.4336H5.99454C5.81324 50.4336 5.63936 50.5056 5.51116 50.6338C5.38297 50.762 5.31094 50.9359 5.31094 51.1172V53.4609C5.31094 53.6422 5.38297 53.8161 5.51116 53.9443C5.63936 54.0725 5.81324 54.1445 5.99454 54.1445H37.0945C37.1843 54.1446 37.2732 54.1269 37.3562 54.0926C37.4392 54.0583 37.5145 54.0079 37.578 53.9444C37.6415 53.8809 37.6919 53.8056 37.7262 53.7226C37.7605 53.6396 37.7782 53.5507 37.7781 53.4609V51.1172C37.7782 51.0274 37.7605 50.9385 37.7262 50.8555C37.6919 50.7726 37.6415 50.6972 37.578 50.6337C37.5145 50.5702 37.4392 50.5199 37.3562 50.4855C37.2732 50.4512 37.1843 50.4335 37.0945 50.4336H35.6172V37.5859H36.4727C36.5431 37.586 36.6106 37.6141 36.6604 37.6639C36.7102 37.7136 36.7382 37.7811 36.7383 37.8516V43.9414C36.7383 44.9955 37.157 46.0065 37.9024 46.7519C38.6478 47.4973 39.6588 47.916 40.7129 47.916C41.767 47.916 42.778 47.4973 43.5234 46.7519C44.2688 46.0065 44.6875 44.9955 44.6875 43.9414V28.3133C44.6877 28.3095 44.6877 28.3057 44.6875 28.302V25.9582ZM43.3203 26.8121V27.473V27.4844V27.6184H42.3438V26.6418H43.3203V26.8008V26.8121ZM43.3203 20.6871V25.2746H42.3438V21.4922C42.3393 21.3869 42.3127 21.2838 42.2655 21.1895C42.2184 21.0953 42.1519 21.012 42.0703 20.9453C41.9482 20.8444 41.7948 20.7891 41.6363 20.7891H38.2852V18.8309C38.2852 18.818 38.2891 18.8059 38.2891 18.7918V17.1328H38.8176L43.3203 20.6871ZM36.4727 33.875H35.6172V23.6371C35.6172 23.6293 35.6172 23.6219 35.6172 23.6145V19.4766H36.918V21.4727C36.9179 21.5624 36.9356 21.6514 36.9699 21.7343C37.0042 21.8173 37.0546 21.8927 37.1181 21.9561C37.1816 22.0196 37.2569 22.07 37.3399 22.1043C37.4229 22.1387 37.5118 22.1563 37.6016 22.1562H38.1719V23.1875C38.1725 23.6794 38.3682 24.151 38.716 24.4988C39.0639 24.8467 39.5354 25.0423 40.0274 25.043H40.9766V26.8008V26.8121V27.473V27.4844V43.9414C40.9766 44.0113 40.9488 44.0784 40.8993 44.1279C40.8499 44.1773 40.7828 44.2051 40.7129 44.2051C40.643 44.2051 40.5759 44.1773 40.5265 44.1279C40.477 44.0784 40.4492 44.0113 40.4492 43.9414V37.8516C40.448 36.7973 40.0286 35.7866 39.2831 35.0411C38.5377 34.2956 37.5269 33.8762 36.4727 33.875ZM40.9766 22.1562V23.6758H40.0274C39.8979 23.6757 39.7737 23.6242 39.6822 23.5327C39.5906 23.4411 39.5392 23.317 39.5391 23.1875V22.1562H40.9766ZM36.9219 17.1328V18.1094H35.6184V17.1328H36.9219ZM10.4981 9.22266H32.591C33.0312 9.22317 33.4531 9.39825 33.7644 9.70948C34.0756 10.0207 34.2507 10.4427 34.2512 10.8828V23.6258C34.2479 24.0638 34.0717 24.4828 33.761 24.7916C33.4503 25.1004 33.0302 25.274 32.5922 25.2746H10.4981C10.0615 25.2739 9.6428 25.1014 9.33248 24.7944C9.02216 24.4873 8.84519 24.0705 8.83985 23.634V16.582C8.83985 16.5754 8.83985 16.5695 8.83985 16.5633V10.8828C8.84037 10.443 9.01517 10.0213 9.32598 9.71016C9.63678 9.39899 10.0582 9.22369 10.4981 9.22266ZM36.4109 52.7773H6.67969V51.8008H36.4109V52.7773ZM8.83985 50.4336V26.1441C9.33187 26.469 9.90849 26.642 10.4981 26.6418H32.591C33.1809 26.6419 33.7577 26.4687 34.25 26.1438V50.4336H8.83985ZM40.7149 46.5508C40.0231 46.55 39.3598 46.2748 38.8707 45.7856C38.3815 45.2964 38.1063 44.6332 38.1055 43.9414V37.8516C38.105 37.4187 37.9328 37.0037 37.6267 36.6976C37.3206 36.3915 36.9056 36.2193 36.4727 36.2188H35.6172V35.2422H36.4727C37.1645 35.2429 37.8278 35.5181 38.317 36.0073C38.8062 36.4965 39.0813 37.1597 39.082 37.8516V43.9414C39.082 44.1556 39.1242 44.3676 39.2062 44.5655C39.2881 44.7634 39.4083 44.9432 39.5597 45.0946C39.7111 45.246 39.8909 45.3662 40.0888 45.4481C40.2867 45.5301 40.4987 45.5723 40.7129 45.5723C40.9271 45.5723 41.1391 45.5301 41.337 45.4481C41.5349 45.3662 41.7146 45.246 41.8661 45.0946C42.0175 44.9432 42.1377 44.7634 42.2196 44.5655C42.3016 44.3676 42.3438 44.1556 42.3438 43.9414V28.9855H43.3203V43.9414C43.32 44.6327 43.0455 45.2956 42.5571 45.7848C42.0686 46.274 41.4061 46.5494 40.7149 46.5508Z" fill="black"/>
<path d="M10.498 36.159C10.3167 36.159 10.1429 36.231 10.0147 36.3592C9.88647 36.4874 9.81445 36.6613 9.81445 36.8426V39.577C9.81445 39.7583 9.88647 39.9321 10.0147 40.0603C10.1429 40.1885 10.3167 40.2606 10.498 40.2606C10.6793 40.2606 10.8532 40.1885 10.9814 40.0603C11.1096 39.9321 11.1816 39.7583 11.1816 39.577V36.8426C11.1817 36.7528 11.164 36.6639 11.1297 36.5809C11.0954 36.498 11.045 36.4226 10.9815 36.3591C10.918 36.2956 10.8427 36.2453 10.7597 36.2109C10.6767 36.1766 10.5878 36.1589 10.498 36.159Z" fill="black"/>
<path d="M12.8418 21.9543H30.2473C30.4286 21.9543 30.6024 21.8823 30.7306 21.7541C30.8588 21.6259 30.9309 21.452 30.9309 21.2707V13.2266C30.9309 13.0453 30.8588 12.8714 30.7306 12.7432C30.6024 12.615 30.4286 12.543 30.2473 12.543H12.8418C12.6605 12.543 12.4866 12.615 12.3584 12.7432C12.2302 12.8714 12.1582 13.0453 12.1582 13.2266V21.2707C12.1582 21.452 12.2302 21.6259 12.3584 21.7541C12.4866 21.8823 12.6605 21.9543 12.8418 21.9543ZM13.5254 13.9102H29.5637V20.5871H13.5254V13.9102Z" fill="black"/>
<path d="M21.5445 33.3805C20.3351 33.3805 19.1529 33.7391 18.1473 34.411C17.1417 35.0829 16.358 36.0379 15.8952 37.1553C15.4323 38.2726 15.3112 39.5021 15.5472 40.6883C15.7831 41.8744 16.3655 42.964 17.2207 43.8192C18.0759 44.6744 19.1654 45.2567 20.3516 45.4927C21.5377 45.7286 22.7672 45.6075 23.8846 45.1447C25.0019 44.6819 25.9569 43.8981 26.6288 42.8926C27.3007 41.887 27.6594 40.7047 27.6594 39.4953C27.6576 37.8741 27.0128 36.3198 25.8664 35.1734C24.7201 34.0271 23.1657 33.3823 21.5445 33.3805ZM21.5445 44.2426C20.6055 44.2426 19.6876 43.9641 18.9068 43.4424C18.1261 42.9208 17.5176 42.1792 17.1582 41.3117C16.7989 40.4442 16.7049 39.4895 16.8881 38.5686C17.0714 37.6476 17.5236 36.8017 18.1876 36.1377C18.8516 35.4738 19.6976 35.0216 20.6185 34.8385C21.5395 34.6553 22.4941 34.7494 23.3617 35.1088C24.2292 35.4682 24.9706 36.0768 25.4923 36.8576C26.0139 37.6384 26.2923 38.5563 26.2922 39.4953C26.2906 40.7539 25.7899 41.9605 24.8999 42.8504C24.0098 43.7403 22.8031 44.2409 21.5445 44.2422V44.2426Z" fill="black"/>
<path d="M21.0547 35.7434C20.7949 36.0102 18.5176 38.4106 18.5176 40.427C18.5176 41.2299 18.8365 41.9999 19.4043 42.5676C19.972 43.1354 20.742 43.4543 21.5449 43.4543C22.3478 43.4543 23.1178 43.1354 23.6856 42.5676C24.2533 41.9999 24.5723 41.2299 24.5723 40.427C24.5723 38.4106 22.2945 36.0102 22.0332 35.7434C21.902 35.6163 21.7266 35.5452 21.5439 35.5452C21.3613 35.5452 21.1859 35.6163 21.0547 35.7434ZM21.5449 42.0871C21.1048 42.0866 20.6828 41.9115 20.3716 41.6003C20.0604 41.2891 19.8853 40.8671 19.8848 40.427C19.8848 39.4504 20.8438 38.0832 21.5449 37.2453C22.2457 38.0848 23.2051 39.4504 23.2051 40.427C23.2046 40.8672 23.0294 41.2892 22.7181 41.6004C22.4068 41.9117 21.9847 42.0867 21.5445 42.0871H21.5449Z" fill="black"/>
</svg>
