<?xml version="1.0" encoding="utf-8"?>
<!-- Generator: Adobe Illustrator 22.0.0, SVG Export Plug-In . SVG Version: 6.00 Build 0)  -->
<svg version="1.1" id="Layer_1" xmlns="http://www.w3.org/2000/svg" xmlns:xlink="http://www.w3.org/1999/xlink" x="0px" y="0px"
	 viewBox="0 0 432.7 432.7" style="enable-background:new 0 0 432.7 432.7;" xml:space="preserve">
<style type="text/css">
	.st0{fill:url(#SVGID_1_);}
	.st1{fill:#FFFFFF;}
</style>
<linearGradient id="SVGID_1_" gradientUnits="userSpaceOnUse" x1="216.35" y1="-8.173" x2="216.35" y2="437.4451">
	<stop  offset="0.4649" style="stop-color:#B30000"/>
	<stop  offset="0.554" style="stop-color:#AD0000"/>
	<stop  offset="0.6787" style="stop-color:#9A0000"/>
	<stop  offset="0.8243" style="stop-color:#7D0000"/>
	<stop  offset="0.9847" style="stop-color:#530000"/>
	<stop  offset="1" style="stop-color:#4F0000"/>
</linearGradient>
<path class="st0" d="M330,432H102.7c-56.1,0-102-45.9-102-102V102.7c0-56.1,45.9-102,102-102H330c56.1,0,102,45.9,102,102V330
	C432,386.1,386.1,432,330,432z"/>
<g>
	<g>
		<g>
			<circle class="st1" cx="216.4" cy="291.2" r="15.3"/>
			<path class="st1" d="M216.4,60C129.9,60,60,129.9,60,216.4c0,86.4,69.9,156.4,156.4,156.4c86.4,0,156.4-69.9,156.4-156.4
				C372.7,129.9,302.8,60,216.4,60z M216.4,348.3c-72.9,0-132-59-132-132c0-72.9,59-132,132-132c72.9,0,132,59,132,132
				C348.3,289.3,289.3,348.3,216.4,348.3z"/>
			<path class="st1" d="M216.4,138.5c-26.9,0-48.9,21.9-48.9,48.9c0,6.7,5.5,12.2,12.2,12.2c6.7,0,12.2-5.5,12.2-12.2
				c0-13.5,11-24.4,24.4-24.4s24.4,11,24.4,24.4c0,13.5-11,24.4-24.4,24.4c-6.7,0-12.2,5.5-12.2,12.2v30.5c0,6.7,5.5,12.2,12.2,12.2
				c6.7,0,12.2-5.5,12.2-12.2v-19.9c21.1-5.4,36.7-24.6,36.7-47.3C265.2,160.4,243.3,138.5,216.4,138.5z"/>
		</g>
	</g>
</g>
</svg>
