<?xml version="1.0" encoding="utf-8"?>
<!-- Generator: Adobe Illustrator 22.0.0, SVG Export Plug-In . SVG Version: 6.00 Build 0)  -->
<svg version="1.1" id="Layer_1" xmlns="http://www.w3.org/2000/svg" xmlns:xlink="http://www.w3.org/1999/xlink" x="0px" y="0px"
	 viewBox="0 0 432.7 432.7" style="enable-background:new 0 0 432.7 432.7;" xml:space="preserve">
<style type="text/css">
	.st0{fill:url(#SVGID_1_);}
	.st1{fill:#FFFFFF;}
</style>
<linearGradient id="SVGID_1_" gradientUnits="userSpaceOnUse" x1="216.3559" y1="-4.1126" x2="216.3559" y2="433.4584">
	<stop  offset="0.4649" style="stop-color:#B31917"/>
	<stop  offset="0.5362" style="stop-color:#AE1918"/>
	<stop  offset="0.6361" style="stop-color:#A01919"/>
	<stop  offset="0.7528" style="stop-color:#891819"/>
	<stop  offset="0.8811" style="stop-color:#6A1517"/>
	<stop  offset="1" style="stop-color:#4B0F11"/>
</linearGradient>
<path class="st0" d="M327.9,428.1H104.8C49.7,428.1,4.6,383,4.6,327.9V104.8C4.6,49.7,49.7,4.6,104.8,4.6h223.2
	c55.1,0,100.1,45.1,100.1,100.1v223.2C428.1,383,383,428.1,327.9,428.1z"/>
<g id="_x30_24---Voice-Recognition" transform="translate(-1 -1)">
	<path id="Shape" class="st1" d="M217.4,385.2c59.9,0,112.5-39.6,129-97.2c16.5-57.6-7.1-119.1-57.9-150.8c6.1-29-6-58.7-30.5-75.3
		c-24.6-16.5-56.7-16.5-81.2,0s-36.6,46.3-30.5,75.3C95.4,168.9,71.8,230.5,88.3,288S157.5,385.2,217.4,385.2z M122.7,258.7
		c25.3,10.2,67.2,57.2,63.6,82C150.7,328.4,125.8,296.2,122.7,258.7z M312.3,246.8c-23.9,6.9-54.6,39.5-67.1,63.3
		c-18.5,2.9-37.2,2.9-55.7,0c-12.3-23.4-43-56.3-67.1-63.3c0.3-6.1,1.1-12.1,2.5-18.1c9.3-1.1,18.2-2.4,26.4-4.1
		c21.8-4.4,43.9-6.8,66.1-7.3c22.2,0.5,44.3,3,66,7.3c8.2,1.7,17.1,3,26.4,4.1C311.2,234.7,312.1,240.7,312.3,246.8z M194.8,322.2
		c15,1.8,30.2,1.8,45.2,0c-2.7,6.9-3.4,14.3-2.3,21.6c-13.4,3-27.2,3-40.6,0C198.2,336.5,197.4,329.1,194.8,322.2z M248.4,340.7
		c-3.6-24.7,38.2-71.7,63.6-82C308.9,296.2,284,328.4,248.4,340.7L248.4,340.7z M285.6,213.7c-80.9-16.1-117.8-1.7-157.1,3.4
		c7-18.4,19.6-34.2,36-45c13.7,14.6,32.8,22.9,52.9,22.9s39.2-8.3,52.9-22.9c16.4,10.8,29,26.6,36,44.9
		C299,216.1,292,215,285.6,213.7L285.6,213.7z M217.4,60.7c34,0,61.5,27.5,61.5,61.5s-27.5,61.5-61.5,61.5s-61.5-27.5-61.5-61.5
		C155.9,88.3,183.4,60.8,217.4,60.7z M149.5,148.3c2,5.3,4.7,10.4,7.9,15.1c-38.5,26.3-55.4,74.6-41.6,119.1s54.9,74.9,101.5,74.9
		s87.8-30.4,101.5-74.9c13.8-44.5-3.1-92.8-41.6-119.1c3.2-4.7,5.9-9.7,7.9-15.1c45.3,29.9,65.7,86.1,50,138.1
		c-15.6,52-63.5,87.7-117.9,87.7s-102.2-35.6-117.9-87.7S104.2,178.2,149.5,148.3L149.5,148.3z"/>
	<path id="Shape_1_" class="st1" d="M155.8,234.2c-3.1,0-5.6,2.5-5.6,5.6v11.2c0,3.1,2.5,5.6,5.6,5.6c3.1,0,5.6-2.5,5.6-5.6v-11.2
		C161.4,236.7,158.9,234.2,155.8,234.2z"/>
	<path id="Shape_2_" class="st1" d="M178.2,234.2c-3.1,0-5.6,2.5-5.6,5.6v11.2c0,3.1,2.5,5.6,5.6,5.6c3.1,0,5.6-2.5,5.6-5.6v-11.2
		C183.8,236.7,181.3,234.2,178.2,234.2z"/>
	<path id="Shape_3_" class="st1" d="M256.5,234.2c-3.1,0-5.6,2.5-5.6,5.6v11.2c0,3.1,2.5,5.6,5.6,5.6c3.1,0,5.6-2.5,5.6-5.6v-11.2
		C262.1,236.7,259.6,234.2,256.5,234.2z"/>
	<path id="Shape_4_" class="st1" d="M278.9,234.2c-3.1,0-5.6,2.5-5.6,5.6v11.2c0,3.1,2.5,5.6,5.6,5.6s5.6-2.5,5.6-5.6v-11.2
		C284.5,236.7,282,234.2,278.9,234.2z"/>
	<path id="Shape_5_" class="st1" d="M217.4,133.5c12.4,0,22.4-10,22.4-22.4V94.3c0-12.4-10-22.4-22.4-22.4C205,71.9,195,82,195,94.3
		v16.8C195,123.4,205,133.5,217.4,133.5z M206.2,94.3c0-6.2,5-11.2,11.2-11.2c6.2,0,11.2,5,11.2,11.2v16.8c0,6.2-5,11.2-11.2,11.2
		c-6.2,0-11.2-5-11.2-11.2V94.3z"/>
	<path id="Shape_6_" class="st1" d="M211.8,155.5v6h-11.2c-3.1,0-5.6,2.5-5.6,5.6c0,3.1,2.5,5.6,5.6,5.6h33.6c3.1,0,5.6-2.5,5.6-5.6
		c0-3.1-2.5-5.6-5.6-5.6h-11.2v-6c22.4-2.8,39.1-21.8,39.2-44.4V99.9c0-3.1-2.5-5.6-5.6-5.6c-3.1,0-5.6,2.5-5.6,5.6v11.2
		c0,18.5-15,33.6-33.6,33.6s-33.6-15-33.6-33.6V99.9c0-3.1-2.5-5.6-5.6-5.6c-3.1,0-5.6,2.5-5.6,5.6v11.2
		C172.6,133.6,189.4,152.6,211.8,155.5z"/>
	<path id="Shape_7_" class="st1" d="M325.1,141.9c-2.3,1.2-3.5,3.8-2.9,6.3c0.6,2.5,2.9,4.3,5.4,4.3c0.9,0,1.8-0.2,2.5-0.6
		c13.1-6.8,21.4-20.4,21.4-35.2s-8.2-28.4-21.4-35.2c-2.7-1.4-6.1-0.3-7.5,2.4c-1.4,2.7-0.3,6.1,2.4,7.5
		c9.4,4.9,15.3,14.7,15.3,25.3S334.5,137,325.1,141.9L325.1,141.9z"/>
	<path id="Shape_8_" class="st1" d="M315.2,121.8c-2.3,1.2-3.5,3.8-2.9,6.3c0.6,2.5,2.9,4.3,5.4,4.3c7.1-1.8,12-8.4,11.7-15.7
		c0-6.4-3.5-12.2-9.2-15.1c-2.7-1.3-6-0.2-7.4,2.5c-1.4,2.7-0.3,6,2.3,7.5c1.9,1,3.1,3,3.1,5.1C318.3,118.8,317.1,120.8,315.2,121.8
		L315.2,121.8z"/>
	<path id="Shape_9_" class="st1" d="M104.5,81.4c-13.1,6.8-21.4,20.4-21.4,35.2s8.2,28.4,21.4,35.2c2.7,1.4,6.1,0.3,7.5-2.4
		s0.3-6.1-2.4-7.5c-9.4-4.9-15.3-14.7-15.3-25.3s5.9-20.3,15.3-25.3c2.7-1.4,3.8-4.8,2.4-7.5C110.6,81.1,107.2,80,104.5,81.4z"/>
	<path id="Shape_10_" class="st1" d="M119.5,111.6c1.8-0.9,3-2.7,3.1-4.7c0.1-2-0.9-4-2.6-5c-1.7-1.1-3.9-1.2-5.7-0.2
		c-5.6,2.9-9.2,8.7-9.2,15.1c0,6.3,3.5,12.2,9.2,15.1c1.8,1,3.9,0.9,5.7-0.2c1.7-1.1,2.7-3,2.6-5c-0.1-2-1.3-3.8-3.1-4.7
		c-1.9-1-3.1-3-3.1-5.1S117.6,112.6,119.5,111.6L119.5,111.6z"/>
</g>
</svg>
