<?xml version="1.0" encoding="utf-8"?>
<!-- Generator: Adobe Illustrator 22.0.0, SVG Export Plug-In . SVG Version: 6.00 Build 0)  -->
<svg version="1.1" id="Layer_1" xmlns="http://www.w3.org/2000/svg" xmlns:xlink="http://www.w3.org/1999/xlink" x="0px" y="0px"
	 viewBox="0 0 432.7 282.4" style="enable-background:new 0 0 432.7 282.4;" xml:space="preserve">
<style type="text/css">
	.st0{fill:url(#SVGID_1_);}
	.st1{fill:#FFFFFF;}
</style>
<linearGradient id="SVGID_1_" gradientUnits="userSpaceOnUse" x1="216.4" y1="286.8281" x2="216.4" y2="-4.3288" gradientTransform="matrix(1 0 0 -1 0 281.2126)">
	<stop  offset="0.4649" style="stop-color:#B30000"/>
	<stop  offset="0.554" style="stop-color:#AD0000"/>
	<stop  offset="0.6787" style="stop-color:#9A0000"/>
	<stop  offset="0.8243" style="stop-color:#7D0000"/>
	<stop  offset="0.9847" style="stop-color:#530000"/>
	<stop  offset="1" style="stop-color:#4F0000"/>
</linearGradient>
<path class="st0" d="M349.5,282H83.2c-45.3,0-82.4-37.1-82.4-82.4v-117c0-45.3,37.1-82.4,82.4-82.4h266.4
	c45.3,0,82.4,37.1,82.4,82.4v116.9C432,244.9,394.9,282,349.5,282z"/>
<g>
	<g>
		<path class="st1" d="M222.9,143.6c-27.5,0-49.9,22.4-49.9,49.9s22.4,49.9,49.9,49.9s49.9-22.4,49.9-49.9S250.4,143.6,222.9,143.6z
			 M222.9,231.4c-20.9,0-37.9-17-37.9-37.9s17-37.9,37.9-37.9s37.9,17,37.9,37.9S243.8,231.4,222.9,231.4z"/>
		<circle class="st1" cx="234.8" cy="183.5" r="6"/>
		<circle class="st1" cx="210.9" cy="183.5" r="6"/>
		<path class="st1" d="M234.6,202.6c-6.5,6.5-17,6.5-23.5,0c-2.3-2.3-6.1-2.3-8.5,0s-2.3,6.1,0,8.5c5.6,5.6,12.9,8.4,20.2,8.4
			s14.6-2.8,20.2-8.4c2.3-2.3,2.3-6.1,0-8.5C240.7,200.3,236.9,200.3,234.6,202.6L234.6,202.6z"/>
	</g>
	<g>
		<path class="st1" d="M158.5,117.2c0-27.5-22.4-49.9-49.9-49.9s-49.9,22.4-49.9,49.9s22.4,49.9,49.9,49.9S158.5,144.8,158.5,117.2z
			 M108.5,155.2c-20.9,0-37.9-17-37.9-37.9s17-37.9,37.9-37.9s37.9,17,37.9,37.9S129.5,155.2,108.5,155.2z"/>
		<circle class="st1" cx="120.5" cy="107.3" r="6"/>
		<circle class="st1" cx="96.6" cy="107.3" r="6"/>
		<path class="st1" d="M124.5,127.2H92.6c-3.3,0-6,2.7-6,6c0,3.3,2.7,6,6,6h31.9c3.3,0,6-2.7,6-6
			C130.5,129.9,127.8,127.2,124.5,127.2z"/>
	</g>
	<g>
		<path class="st1" d="M324.2,39c-27.5,0-49.9,22.4-49.9,49.9s22.4,49.9,49.9,49.9c27.5,0,49.9-22.4,49.9-49.9S351.7,39,324.2,39z
			 M324.2,126.8c-20.9,0-37.9-17-37.9-37.9s17-37.9,37.9-37.9c20.9,0,37.9,17,37.9,37.9S345.1,126.8,324.2,126.8z"/>
		<circle class="st1" cx="336.1" cy="78.9" r="6"/>
		<circle class="st1" cx="312.2" cy="78.9" r="6"/>
		<path class="st1" d="M303.9,103.3c-2.3,2.3-2.3,6.1,0,8.5c2.3,2.3,6.1,2.3,8.5,0c6.5-6.5,17-6.5,23.5,0c1.2,1.2,2.7,1.8,4.2,1.8
			c1.5,0,3.1-0.6,4.2-1.8c2.3-2.3,2.3-6.1,0-8.5C333.2,92.1,315.1,92.1,303.9,103.3L303.9,103.3z"/>
	</g>
</g>
</svg>
