<?xml version="1.0" encoding="utf-8"?>
<!-- Generator: Adobe Illustrator 22.0.0, SVG Export Plug-In . SVG Version: 6.00 Build 0)  -->
<svg version="1.1" id="Capa_1" xmlns="http://www.w3.org/2000/svg" xmlns:xlink="http://www.w3.org/1999/xlink" x="0px" y="0px"
	 viewBox="0 0 512 512" style="enable-background:new 0 0 512 512;" xml:space="preserve">
<style type="text/css">
	.st0{fill:url(#SVGID_1_);}
	.st1{fill:#B30000;}
</style>
<g>
	<g>
		<linearGradient id="SVGID_1_" gradientUnits="userSpaceOnUse" x1="255.9994" y1="-8.266183e-05" x2="255.9994" y2="511.9999">
			<stop  offset="0.4649" style="stop-color:#B30000"/>
			<stop  offset="0.554" style="stop-color:#AD0000"/>
			<stop  offset="0.6787" style="stop-color:#9A0000"/>
			<stop  offset="0.8243" style="stop-color:#7D0000"/>
			<stop  offset="0.9847" style="stop-color:#530000"/>
			<stop  offset="1" style="stop-color:#4F0000"/>
		</linearGradient>
		<path class="st0" d="M256,0C157.3,0,77,80.3,77,179.1c-0.9,87,43.5,145.3,90.4,207c4,5.3,8.2,10.8,12.3,16.2
			c-26.5,11.5-41.9,28.8-41.9,47.8c0,17.9,13.3,34.2,37.4,45.7c21.8,10.4,50.5,16.2,80.8,16.2c30.4,0,59.1-5.8,80.8-16.2
			c24.1-11.6,37.4-27.8,37.4-45.7c0-19-15.4-36.3-41.9-47.8c4.1-5.4,8.2-10.8,12.2-16.1c11.5-15.1,22.3-29.3,32.6-44
			c3.2-4.5,2.1-10.8-2.5-13.9c-4.5-3.2-10.8-2.1-13.9,2.5c-10.1,14.4-20.8,28.5-32.1,43.4c-4.7,6.2-9.6,12.7-14.5,19.1L277.2,436
			c-6.6,7.7-14,11.8-21.1,11.8c-7.2,0-14.6-4.1-21.2-11.8c0,0-46.7-55.8-51.5-62.1C136.6,312.5,96.2,259.4,97,179.2c0,0,0-0.1,0-0.1
			C97,91.4,168.3,20,256,20c87.7,0,159,71.4,159,159.1c0,0,0,0.1,0,0.1c0.3,26.4-3.9,51.2-12.8,75.8c-1.9,5.2,0.8,10.9,6,12.8
			c5.2,1.9,10.9-0.8,12.8-6c9.7-26.8,14.3-53.9,14-82.7C435,80.3,354.7,0,256,0L256,0z M256,467.8c13.2,0,25.8-6.5,36.3-18.8
			l26.4-30.6c21.7,8.1,35.4,20.2,35.4,31.6c0,19.8-40.3,41.9-98.2,41.9s-98.2-22.1-98.2-41.9c0-11.4,13.7-23.5,35.4-31.6l26.4,30.6
			C230.2,461.3,242.8,467.8,256,467.8L256,467.8z"/>
		<path class="st1" d="M348.1,170.9l-85-85.1c-1.9-1.9-4.4-2.9-7.1-2.9s-5.2,1.1-7.1,2.9l-85.1,85.1c-3.9,3.9-3.9,10.2,0,14.1
			c3.9,3.9,10.2,3.9,14.1,0l6.3-6.4v52.6c0,9.3,7.6,16.9,17,16.9h109.4c9.3,0,16.9-7.6,16.9-16.9v-52.6l6.3,6.4c2,2,4.5,2.9,7.1,2.9
			c2.6,0,5.1-1,7.1-2.9C352,181.1,352,174.8,348.1,170.9L348.1,170.9z M307.6,228.2h-62.2v-45c0-5.5-4.5-10-10-10s-10,4.5-10,10v45
			h-21v-69.5l51.7-51.7l51.6,51.7V228.2z"/>
		<path class="st1" d="M276.6,198.9c5.5,0,10-4.5,10-10v-18.4c0-5.5-4.5-10-10-10s-10,4.5-10,10v18.4
			C266.6,194.4,271.1,198.9,276.6,198.9z"/>
		<path class="st1" d="M256,43.9c-74.5,0-135.1,60.7-135.1,135.3c0,74.6,60.6,135.3,135.1,135.3c74.5,0,135.1-60.7,135.1-135.3
			C391.1,104.6,330.5,43.9,256,43.9z M256,294.4c-63.5,0-115.1-51.7-115.1-115.3S192.5,63.9,256,63.9s115.1,51.7,115.1,115.3
			S319.5,294.4,256,294.4z"/>
		<path class="st1" d="M386,291.4L386,291.4c-3.9,3.9-3.9,10.3,0,14.2c1.9,1.9,4.5,2.9,7.1,2.9c2.6,0,5.1-1,7.1-2.9
			c3.9-3.9,3.9-10.2,0-14.1C396.2,287.5,389.9,287.5,386,291.4L386,291.4z"/>
	</g>
</g>
</svg>
