<?xml version="1.0" encoding="utf-8"?>
<!-- Generator: Adobe Illustrator 22.0.0, SVG Export Plug-In . SVG Version: 6.00 Build 0)  -->
<svg version="1.1" id="Layer_1" xmlns="http://www.w3.org/2000/svg" xmlns:xlink="http://www.w3.org/1999/xlink" x="0px" y="0px"
	 viewBox="0 0 432.7 432.7" style="enable-background:new 0 0 432.7 432.7;" xml:space="preserve">
<style type="text/css">
	.st0{fill:url(#SVGID_1_);}
	.st1{fill:#FFFFFF;}
</style>
<linearGradient id="SVGID_1_" gradientUnits="userSpaceOnUse" x1="216.35" y1="-8.173" x2="216.35" y2="437.4451">
	<stop  offset="0.4649" style="stop-color:#B30000"/>
	<stop  offset="0.554" style="stop-color:#AD0000"/>
	<stop  offset="0.6787" style="stop-color:#9A0000"/>
	<stop  offset="0.8243" style="stop-color:#7D0000"/>
	<stop  offset="0.9847" style="stop-color:#530000"/>
	<stop  offset="1" style="stop-color:#4F0000"/>
</linearGradient>
<path class="st0" d="M330,432H102.7c-56.1,0-102-45.9-102-102V102.7c0-56.1,45.9-102,102-102H330c56.1,0,102,45.9,102,102V330
	C432,386.1,386.1,432,330,432z"/>
<g>
	<path class="st1" d="M313,352.7H119.7c-14.4,0-26.1-11.7-26.1-26.1V189c0-5,4.1-9.1,9.1-9.1s9.1,4.1,9.1,9.1v137.6c0,4.4,3.6,8,8,8
		H313c4.4,0,8-3.6,8-8V189c0-5,4.1-9.1,9.1-9.1c5,0,9.1,4.1,9.1,9.1v137.6C339.1,341,327.4,352.7,313,352.7z"/>
	<path class="st1" d="M352.8,220.9c-2.3,0-4.7-0.9-6.4-2.7L233.2,105.1c-9.3-9.3-24.5-9.3-33.8,0L86.4,218.2
		c-3.6,3.6-9.3,3.6-12.9,0c-3.6-3.6-3.6-9.3,0-12.9L186.6,92.3c16.4-16.4,43.1-16.4,59.5,0l113.1,113.1c3.6,3.6,3.6,9.3,0,12.9
		C357.4,220,355.1,220.9,352.8,220.9L352.8,220.9z"/>
	<path class="st1" d="M252.7,352.7H180c-5,0-9.1-4.1-9.1-9.1v-80.7c0-15.7,12.7-28.4,28.4-28.4h34.1c15.7,0,28.4,12.7,28.4,28.4
		v80.7C261.8,348.7,257.7,352.7,252.7,352.7z M189.1,334.6h54.6v-71.6c0-5.6-4.6-10.2-10.2-10.2h-34.1c-5.6,0-10.2,4.6-10.2,10.2
		V334.6z"/>
</g>
</svg>
