<svg width="53" height="55" viewBox="0 0 53 55" fill="none" xmlns="http://www.w3.org/2000/svg">
<circle cx="45.5" cy="7.5" r="7.5" fill="#3AB75F"/>
<path d="M14.0625 37.8125V35.4688H16.4063C16.6135 35.4688 16.8122 35.3864 16.9587 35.2399C17.1052 35.0934 17.1875 34.8947 17.1875 34.6875V31.5625C17.1875 31.3553 17.1052 31.1566 16.9587 31.0101C16.8122 30.8636 16.6135 30.7812 16.4063 30.7812H14.0625V28.4375C14.0625 28.2303 13.9802 28.0316 13.8337 27.8851C13.6872 27.7386 13.4885 27.6562 13.2813 27.6562H10.1563C9.94905 27.6562 9.75034 27.7386 9.60382 27.8851C9.45731 28.0316 9.375 28.2303 9.375 28.4375V30.7812H7.03125C6.82405 30.7812 6.62534 30.8636 6.47882 31.0101C6.33231 31.1566 6.25 31.3553 6.25 31.5625V34.6875C6.25 34.8947 6.33231 35.0934 6.47882 35.2399C6.62534 35.3864 6.82405 35.4688 7.03125 35.4688H9.375V37.8125C9.375 38.0197 9.45731 38.2184 9.60382 38.3649C9.75034 38.5114 9.94905 38.5938 10.1563 38.5938H13.2813C13.4885 38.5938 13.6872 38.5114 13.8337 38.3649C13.9802 38.2184 14.0625 38.0197 14.0625 37.8125ZM12.5 34.6875V37.0312H10.9375V34.6875C10.9375 34.4803 10.8552 34.2816 10.7087 34.1351C10.5622 33.9886 10.3635 33.9062 10.1563 33.9062H7.8125V32.3438H10.1563C10.3635 32.3438 10.5622 32.2614 10.7087 32.1149C10.8552 31.9684 10.9375 31.7697 10.9375 31.5625V29.2188H12.5V31.5625C12.5 31.7697 12.5823 31.9684 12.7288 32.1149C12.8753 32.2614 13.074 32.3438 13.2813 32.3438H15.625V33.9062H13.2813C13.074 33.9062 12.8753 33.9886 12.7288 34.1351C12.5823 34.2816 12.5 34.4803 12.5 34.6875Z" fill="black"/>
<path d="M26.5625 43.2812H23.4375C23.2303 43.2812 23.0316 43.3636 22.8851 43.5101C22.7386 43.6566 22.6562 43.8553 22.6562 44.0625V47.1875C22.6562 47.3947 22.7386 47.5934 22.8851 47.7399C23.0316 47.8864 23.2303 47.9688 23.4375 47.9688H26.5625C26.7697 47.9688 26.9684 47.8864 27.1149 47.7399C27.2614 47.5934 27.3438 47.3947 27.3438 47.1875V44.0625C27.3438 43.8553 27.2614 43.6566 27.1149 43.5101C26.9684 43.3636 26.7697 43.2812 26.5625 43.2812ZM25.7812 46.4062H24.2188V44.8438H25.7812V46.4062Z" fill="black"/>
<path d="M20.3125 43.2812H17.1875C16.9803 43.2812 16.7816 43.3636 16.6351 43.5101C16.4886 43.6566 16.4062 43.8553 16.4062 44.0625V47.1875C16.4062 47.3947 16.4886 47.5934 16.6351 47.7399C16.7816 47.8864 16.9803 47.9688 17.1875 47.9688H20.3125C20.5197 47.9688 20.7184 47.8864 20.8649 47.7399C21.0114 47.5934 21.0938 47.3947 21.0938 47.1875V44.0625C21.0938 43.8553 21.0114 43.6566 20.8649 43.5101C20.7184 43.3636 20.5197 43.2812 20.3125 43.2812ZM19.5312 46.4062H17.9688V44.8438H19.5312V46.4062Z" fill="black"/>
<path d="M28.9062 44.0625V47.1875C28.9062 47.3947 28.9886 47.5934 29.1351 47.7399C29.2816 47.8864 29.4803 47.9688 29.6875 47.9688H32.8125C33.0197 47.9688 33.2184 47.8864 33.3649 47.7399C33.5114 47.5934 33.5938 47.3947 33.5938 47.1875V44.0625C33.5938 43.8553 33.5114 43.6566 33.3649 43.5101C33.2184 43.3636 33.0197 43.2812 32.8125 43.2812H29.6875C29.4803 43.2812 29.2816 43.3636 29.1351 43.5101C28.9886 43.6566 28.9062 43.8553 28.9062 44.0625ZM30.4688 44.8438H32.0312V46.4062H30.4688V44.8438Z" fill="black"/>
<path d="M24.2188 10.4688H25.7812C25.9885 10.4688 26.1872 10.3864 26.3337 10.2399C26.4802 10.0934 26.5625 9.8947 26.5625 9.6875C26.5625 9.4803 26.4802 9.28159 26.3337 9.13507C26.1872 8.98856 25.9885 8.90625 25.7812 8.90625H24.2188C24.0115 8.90625 23.8128 8.98856 23.6663 9.13507C23.5198 9.28159 23.4375 9.4803 23.4375 9.6875C23.4375 9.8947 23.5198 10.0934 23.6663 10.2399C23.8128 10.3864 24.0115 10.4688 24.2188 10.4688Z" fill="black"/>
<path d="M48.0625 23.2656C47.5526 21.3709 46.5052 19.6641 45.0469 18.3513C43.5886 17.0385 41.7815 16.1758 39.8437 15.8672V10.4688C39.8437 9.43275 39.4322 8.43918 38.6996 7.70661C37.9671 6.97405 36.9735 6.5625 35.9375 6.5625H14.0625C13.0265 6.5625 12.0329 6.97405 11.3004 7.70661C10.5678 8.43918 10.1562 9.43275 10.1562 10.4688V23.1016C7.7629 23.4711 5.58076 24.6847 4.0044 26.5231C2.42804 28.3615 1.56152 30.7033 1.56152 33.125C1.56152 35.5467 2.42804 37.8885 4.0044 39.7269C5.58076 41.5653 7.7629 42.7789 10.1562 43.1484V49.5312C10.1562 50.5673 10.5678 51.5608 11.3004 52.2934C12.0329 53.026 13.0265 53.4375 14.0625 53.4375H35.9375C36.9735 53.4375 37.9671 53.026 38.6996 52.2934C39.4322 51.5608 39.8437 50.5673 39.8437 49.5312V35.9219C40.1938 35.8677 40.5406 35.7947 40.8828 35.7031C43.4823 35.0028 45.6979 33.3002 47.0438 30.9686C48.3897 28.6371 48.7561 25.8669 48.0625 23.2656ZM11.7187 10.4688C11.7206 9.84772 11.9681 9.25265 12.4073 8.81352C12.8464 8.37438 13.4415 8.12685 14.0625 8.125H35.9375C36.5585 8.12685 37.1536 8.37438 37.5927 8.81352C38.0319 9.25265 38.2794 9.84772 38.2812 10.4688V15.7422C38.0234 15.7422 37.7578 15.75 37.5 15.7656V11.25C37.4981 10.629 37.2506 10.0339 36.8115 9.59477C36.3723 9.15563 35.7773 8.9081 35.1562 8.90625H30.5234C30.1385 8.90495 29.7593 8.99919 29.4198 9.18054C29.0803 9.36189 28.7911 9.62467 28.5781 9.94531L27.9375 10.9062C27.8647 11.0111 27.7678 11.0971 27.655 11.1569C27.5422 11.2167 27.4167 11.2486 27.289 11.25H22.7109C22.5824 11.2488 22.456 11.2161 22.343 11.1548C22.23 11.0935 22.1337 11.0055 22.0625 10.8984L21.4219 9.95312C21.2105 9.63034 20.9219 9.36549 20.5821 9.18266C20.2424 8.99983 19.8624 8.90481 19.4766 8.90625H14.8437C14.2227 8.9081 13.6276 9.15563 13.1885 9.59477C12.7494 10.0339 12.5018 10.629 12.5 11.25V23C12.2422 22.9766 11.9766 22.9688 11.7187 22.9688V10.4688ZM28.4453 28.5234C28.7087 29.5167 29.1251 30.463 29.6797 31.3281L28.0312 35.4219C27.9741 35.5639 27.9599 35.7196 27.9904 35.8696C28.021 36.0196 28.0949 36.1573 28.2031 36.2656C28.2748 36.3403 28.361 36.3996 28.4563 36.4399C28.5517 36.4802 28.6543 36.5006 28.7578 36.5C28.8573 36.498 28.9555 36.4768 29.0469 36.4375L33.2656 34.7422C34.1019 35.2165 35.0016 35.569 35.9375 35.7891V48.75C35.9375 48.9572 35.8552 49.1559 35.7087 49.3024C35.5622 49.4489 35.3634 49.5312 35.1562 49.5312H14.8437C14.6365 49.5312 14.4378 49.4489 14.2913 49.3024C14.1448 49.1559 14.0625 48.9572 14.0625 48.75V43C16.284 42.4696 18.2625 41.2072 19.6796 39.416C21.0966 37.6248 21.8699 35.409 21.875 33.125C21.8888 30.4648 20.8463 27.9079 18.9766 26.0156L19.5234 21.5C19.5414 21.3484 19.5146 21.1948 19.4462 21.0583C19.3779 20.9218 19.271 20.8083 19.1389 20.7318C19.0067 20.6554 18.8551 20.6193 18.7027 20.6281C18.5502 20.6369 18.4037 20.6901 18.2812 20.7813L14.75 23.4297C14.5234 23.3594 14.2969 23.2969 14.0625 23.2422V11.25C14.0625 11.0428 14.1448 10.8441 14.2913 10.6976C14.4378 10.5511 14.6365 10.4688 14.8437 10.4688H19.4766C19.6051 10.47 19.7314 10.5026 19.8445 10.5639C19.9575 10.6252 20.0538 10.7132 20.125 10.8203L20.7656 11.7656C20.9769 12.0884 21.2656 12.3533 21.6053 12.5361C21.9451 12.7189 22.3251 12.8139 22.7109 12.8125H27.289C27.674 12.8138 28.0532 12.7196 28.3927 12.5382C28.7322 12.3569 29.0214 12.0941 29.2344 11.7734L29.875 10.8125C29.9478 10.7076 30.0447 10.6217 30.1575 10.5619C30.2703 10.5021 30.3958 10.4701 30.5234 10.4688H35.1562C35.3634 10.4688 35.5622 10.5511 35.7087 10.6976C35.8552 10.8441 35.9375 11.0428 35.9375 11.25V16.0156C35.8359 16.0391 35.7265 16.0547 35.625 16.0781C33.0245 16.7795 30.8082 18.4835 29.4623 20.8165C28.1164 23.1496 27.7507 25.9211 28.4453 28.5234ZM3.12499 33.125C3.12523 31.7466 3.45705 30.3884 4.09245 29.1651C4.72786 27.9419 5.6482 26.8894 6.77581 26.0965C7.90342 25.3037 9.20521 24.7937 10.5713 24.6097C11.9374 24.4256 13.3278 24.5729 14.625 25.0391C14.7471 25.0819 14.8778 25.0944 15.0057 25.0753C15.1337 25.0563 15.2551 25.0063 15.3594 24.9297L17.7578 23.1328L17.3828 26.2109C17.3672 26.3322 17.3802 26.4555 17.4209 26.5709C17.4616 26.6862 17.5289 26.7904 17.6172 26.875C18.473 27.6747 19.1542 28.6428 19.618 29.7183C20.0818 30.7939 20.3183 31.9537 20.3125 33.125C20.3125 35.4042 19.4071 37.5901 17.7954 39.2017C16.1838 40.8133 13.9979 41.7188 11.7187 41.7188C9.43954 41.7188 7.25368 40.8133 5.64204 39.2017C4.0304 37.5901 3.12499 35.4042 3.12499 33.125ZM38.2812 49.5312C38.2794 50.1523 38.0319 50.7473 37.5927 51.1865C37.1536 51.6256 36.5585 51.8731 35.9375 51.875H14.0625C13.4415 51.8731 12.8464 51.6256 12.4073 51.1865C11.9681 50.7473 11.7206 50.1523 11.7187 49.5312V43.2812C11.9844 43.2812 12.2422 43.2578 12.5 43.2422V48.75C12.5018 49.371 12.7494 49.9661 13.1885 50.4052C13.6276 50.8444 14.2227 51.0919 14.8437 51.0938H35.1562C35.7773 51.0919 36.3723 50.8444 36.8115 50.4052C37.2506 49.9661 37.4981 49.371 37.5 48.75V36.0156C37.7578 36.0391 38.0234 36.0469 38.2812 36.0469V49.5312ZM40.4766 34.1953C39.3466 34.5022 38.1655 34.5731 37.007 34.4038C35.8484 34.2344 34.737 33.8284 33.7422 33.2109C33.6378 33.1467 33.52 33.1076 33.398 33.0968C33.276 33.0859 33.1531 33.1036 33.039 33.1484L30.164 34.3047L31.2812 31.5312C31.3294 31.4101 31.3468 31.2789 31.3318 31.1493C31.3168 31.0198 31.2699 30.896 31.1953 30.7891C30.1549 29.2883 29.6196 27.4951 29.667 25.6695C29.7145 23.844 30.3423 22.081 31.4593 20.6363C32.5763 19.1916 34.1245 18.1403 35.8793 17.6349C37.6342 17.1294 39.5044 17.1961 41.2187 17.8253C42.9331 18.4545 44.4024 19.6134 45.4137 21.134C46.4249 22.6546 46.9255 24.4578 46.8428 26.2821C46.7601 28.1064 46.0984 29.8569 44.9537 31.2798C43.809 32.7026 42.2408 33.7238 40.4766 34.1953Z" fill="black"/>
<path d="M23.4375 39.375C23.6447 39.375 23.8434 39.2927 23.9899 39.1462C24.1364 38.9997 24.2188 38.801 24.2188 38.5938C24.2188 38.3865 24.1364 38.1878 23.9899 38.0413C23.8434 37.8948 23.6447 37.8125 23.4375 37.8125H22.6562C22.449 37.8125 22.2503 37.8948 22.1038 38.0413C21.9573 38.1878 21.875 38.3865 21.875 38.5938C21.875 38.801 21.9573 38.9997 22.1038 39.1462C22.2503 39.2927 22.449 39.375 22.6562 39.375H23.4375Z" fill="black"/>
<path d="M26.5625 37.8125H25.7812C25.574 37.8125 25.3753 37.8948 25.2288 38.0413C25.0823 38.1878 25 38.3865 25 38.5938C25 38.801 25.0823 38.9997 25.2288 39.1462C25.3753 39.2927 25.574 39.375 25.7812 39.375H26.5625C26.7697 39.375 26.9684 39.2927 27.1149 39.1462C27.2614 38.9997 27.3438 38.801 27.3438 38.5938C27.3438 38.3865 27.2614 38.1878 27.1149 38.0413C26.9684 37.8948 26.7697 37.8125 26.5625 37.8125Z" fill="black"/>
<path d="M28.9062 39.375H29.6875C29.8947 39.375 30.0934 39.2927 30.2399 39.1462C30.3864 38.9997 30.4688 38.801 30.4688 38.5938C30.4688 38.3865 30.3864 38.1878 30.2399 38.0413C30.0934 37.8948 29.8947 37.8125 29.6875 37.8125H28.9062C28.699 37.8125 28.5003 37.8948 28.3538 38.0413C28.2073 38.1878 28.125 38.3865 28.125 38.5938C28.125 38.801 28.2073 38.9997 28.3538 39.1462C28.5003 39.2927 28.699 39.375 28.9062 39.375Z" fill="black"/>
<path d="M19.5312 17.5H18.75C18.5428 17.5 18.3441 17.5823 18.1976 17.7288C18.0511 17.8753 17.9688 18.074 17.9688 18.2812C17.9688 18.4885 18.0511 18.6872 18.1976 18.8337C18.3441 18.9802 18.5428 19.0625 18.75 19.0625H19.5312C19.7385 19.0625 19.9372 18.9802 20.0837 18.8337C20.2302 18.6872 20.3125 18.4885 20.3125 18.2812C20.3125 18.074 20.2302 17.8753 20.0837 17.7288C19.9372 17.5823 19.7385 17.5 19.5312 17.5Z" fill="black"/>
<path d="M22.6562 19.0625C22.8635 19.0625 23.0622 18.9802 23.2087 18.8337C23.3552 18.6872 23.4375 18.4885 23.4375 18.2812C23.4375 18.074 23.3552 17.8753 23.2087 17.7288C23.0622 17.5823 22.8635 17.5 22.6562 17.5H21.875C21.6678 17.5 21.4691 17.5823 21.3226 17.7288C21.1761 17.8753 21.0938 18.074 21.0938 18.2812C21.0938 18.4885 21.1761 18.6872 21.3226 18.8337C21.4691 18.9802 21.6678 19.0625 21.875 19.0625H22.6562Z" fill="black"/>
<path d="M25 19.0625H25.7812C25.9885 19.0625 26.1872 18.9802 26.3337 18.8337C26.4802 18.6872 26.5625 18.4885 26.5625 18.2812C26.5625 18.074 26.4802 17.8753 26.3337 17.7288C26.1872 17.5823 25.9885 17.5 25.7812 17.5H25C24.7928 17.5 24.5941 17.5823 24.4476 17.7288C24.3011 17.8753 24.2188 18.074 24.2188 18.2812C24.2188 18.4885 24.3011 18.6872 24.4476 18.8337C24.5941 18.9802 24.7928 19.0625 25 19.0625Z" fill="black"/>
<path d="M42.1875 24.5313H40.2343C40.6403 23.8824 40.7934 23.1068 40.6645 22.3522C40.5357 21.5977 40.1338 20.9169 39.5355 20.4395C38.9371 19.9621 38.1841 19.7214 37.4198 19.7632C36.6555 19.8051 35.9332 20.1266 35.3906 20.6665L32.0781 23.979C31.6405 24.4152 31.3424 24.9717 31.2215 25.5777C31.1007 26.1837 31.1626 26.8119 31.3994 27.3827C31.6362 27.9534 32.0372 28.441 32.5515 28.7835C33.0658 29.126 33.6703 29.3079 34.2883 29.3063C34.4719 29.3028 34.6548 29.2834 34.8351 29.2485C35.1089 29.7126 35.4983 30.0977 35.9654 30.3664C36.4324 30.635 36.9612 30.778 37.5 30.7813H42.1875C43.0163 30.7813 43.8111 30.4521 44.3972 29.866C44.9832 29.28 45.3125 28.4851 45.3125 27.6563C45.3125 26.8275 44.9832 26.0326 44.3972 25.4466C43.8111 24.8605 43.0163 24.5313 42.1875 24.5313ZM38.6976 21.7711C38.843 21.9159 38.9583 22.0879 39.037 22.2774C39.1158 22.4668 39.1563 22.6699 39.1563 22.8751C39.1563 23.0802 39.1158 23.2833 39.037 23.4727C38.9583 23.6622 38.843 23.8342 38.6976 23.979L38.1453 24.5313H37.5C37.3606 24.5358 37.2218 24.5499 37.0843 24.5735L35.3859 22.8751L36.4898 21.7711C36.7828 21.4787 37.1798 21.3144 37.5937 21.3144C38.0077 21.3144 38.4047 21.4787 38.6976 21.7711ZM33.1773 27.2915C32.8849 26.9985 32.7206 26.6015 32.7206 26.1876C32.7206 25.7736 32.8849 25.3766 33.1773 25.0836L34.2812 23.9797L35.5422 25.2407C35.1794 25.5305 34.8863 25.8979 34.6843 26.316C34.4823 26.734 34.3766 27.192 34.375 27.6563C34.375 27.6821 34.382 27.7055 34.3828 27.7305C34.1622 27.7475 33.9405 27.7172 33.7325 27.6414C33.5246 27.5657 33.3353 27.4464 33.1773 27.2915ZM35.9375 27.6563C35.9375 27.2419 36.1021 26.8445 36.3951 26.5515C36.6881 26.2584 37.0856 26.0938 37.5 26.0938H39.0625V29.2188H37.5C37.0856 29.2188 36.6881 29.0542 36.3951 28.7612C36.1021 28.4681 35.9375 28.0707 35.9375 27.6563ZM42.1875 29.2188H40.625V26.0938H42.1875C42.6019 26.0938 42.9993 26.2584 43.2923 26.5515C43.5853 26.8445 43.75 27.2419 43.75 27.6563C43.75 28.0707 43.5853 28.4681 43.2923 28.7612C42.9993 29.0542 42.6019 29.2188 42.1875 29.2188Z" fill="black"/>
</svg>
