<?xml version="1.0" encoding="utf-8"?>
<!-- Generator: Adobe Illustrator 22.0.0, SVG Export Plug-In . SVG Version: 6.00 Build 0)  -->
<svg version="1.1" id="Layer_1" xmlns="http://www.w3.org/2000/svg" xmlns:xlink="http://www.w3.org/1999/xlink" x="0px" y="0px"
	 viewBox="0 0 432.7 432.7" style="enable-background:new 0 0 432.7 432.7;" xml:space="preserve">
<style type="text/css">
	.st0{fill:url(#SVGID_1_);}
	.st1{fill:#FFFFFF;}
</style>
<linearGradient id="SVGID_1_" gradientUnits="userSpaceOnUse" x1="216.3559" y1="-4.1126" x2="216.3559" y2="433.4584">
	<stop  offset="0.4649" style="stop-color:#B31917"/>
	<stop  offset="0.5362" style="stop-color:#AE1918"/>
	<stop  offset="0.6361" style="stop-color:#A01919"/>
	<stop  offset="0.7528" style="stop-color:#891819"/>
	<stop  offset="0.8811" style="stop-color:#6A1517"/>
	<stop  offset="1" style="stop-color:#4B0F11"/>
</linearGradient>
<path class="st0" d="M327.9,428.1H104.8C49.7,428.1,4.6,383,4.6,327.9V104.8C4.6,49.7,49.7,4.6,104.8,4.6h223.2
	c55.1,0,100.1,45.1,100.1,100.1v223.2C428.1,383,383,428.1,327.9,428.1z"/>
<g>
	<path class="st1" d="M305.4,193.8v-41.4c0-7-5.7-12.7-12.7-12.7c-7,0-12.7,5.7-12.7,12.7v23.2h-10.9v-50.2
		c0-29.2-23.7-52.9-52.9-52.9c-8.6,0-17.2,2.1-24.8,6.2c-2.1,1.1-2.8,3.7-1.7,5.7c1.1,2.1,3.7,2.8,5.7,1.7
		c6.4-3.4,13.6-5.2,20.8-5.2c23,0,41.9,17.5,44.2,39.9h-12.4c-2.3,0-4.2,1.9-4.2,4.2c0,2.3,1.9,4.2,4.2,4.2h12.6v13.4h-12.6
		c-2.3,0-4.2,1.9-4.2,4.2c0,2.3,1.9,4.2,4.2,4.2h12.6v13.4h-12.6c-2.3,0-4.2,1.9-4.2,4.2s1.9,4.2,4.2,4.2h12.6v13.4h-12.6
		c-2.3,0-4.2,1.9-4.2,4.2s1.9,4.2,4.2,4.2h12.4c-2.3,22.4-21.2,39.9-44.2,39.9s-41.9-17.5-44.2-39.9h12.4c2.3,0,4.2-1.9,4.2-4.2
		c0-2.3-1.9-4.2-4.2-4.2h-12.6V173h12.6c2.3,0,4.2-1.9,4.2-4.2c0-2.3-1.9-4.2-4.2-4.2h-12.6v-13.4h12.6c2.3,0,4.2-1.9,4.2-4.2
		c0-2.3-1.9-4.2-4.2-4.2h-12.6v-13.4h12.6c2.3,0,4.2-1.9,4.2-4.2c0-2.3-1.9-4.2-4.2-4.2h-12.4c0.9-9.4,4.8-18.2,11.2-25.2
		c1.6-1.7,1.4-4.4-0.3-6c-1.7-1.6-4.4-1.4-6,0.3c-8.8,9.7-13.6,22.3-13.6,35.4v50.2h-10.9v-23.2c0-7-5.7-12.7-12.7-12.7
		s-12.7,5.7-12.7,12.7v41.4c0,43.9,31.9,80.5,73.8,87.8v51.3h-38.2c-7.6,0-13.7,6.2-13.7,13.7s6.2,13.7,13.7,13.7h18.8
		c2.3,0,4.2-1.9,4.2-4.2c0-2.3-1.9-4.2-4.2-4.2h-18.8c-2.9,0-5.3-2.4-5.3-5.3c0-2.9,2.4-5.3,5.3-5.3h107c2.9,0,5.3,2.4,5.3,5.3
		c0,2.9-2.4,5.3-5.3,5.3h-71.3c-2.3,0-4.2,1.9-4.2,4.2c0,2.3,1.9,4.2,4.2,4.2h71.3c7.6,0,13.7-6.2,13.7-13.7s-6.2-13.7-13.7-13.7
		h-38.2v-51.3C273.5,274.3,305.4,237.7,305.4,193.8L305.4,193.8z M135.7,193.8v-41.4c0-2.3,1.9-4.2,4.2-4.2s4.2,1.9,4.2,4.2v41.4
		c0,39.8,32.4,72.2,72.2,72.2c14.7,0,28.8-4.4,40.9-12.7c1.9-1.3,2.4-4,1.1-5.9c-1.3-1.9-4-2.4-5.9-1.1
		c-10.6,7.3-23.1,11.2-36.1,11.2c-35.1,0-63.7-28.6-63.7-63.7V184h10.9v6.5c0,29.2,23.7,52.9,52.9,52.9s52.9-23.7,52.9-52.9V184
		h10.9v9.8c0,15.4-5.6,30.3-15.8,42c-1.5,1.8-1.4,4.4,0.4,6c1.8,1.5,4.4,1.4,6-0.4c11.5-13.2,17.9-30,17.9-47.5v-41.4
		c0-2.3,1.9-4.2,4.2-4.2s4.2,1.9,4.2,4.2v41.4c0,44.5-36.2,80.6-80.6,80.6S135.7,238.3,135.7,193.8L135.7,193.8z M223.2,332.8h-13.6
		v-50.2c2.3,0.2,4.5,0.3,6.8,0.3c2.3,0,4.6-0.1,6.8-0.3V332.8z"/>
</g>
</svg>
