<?xml version="1.0" encoding="utf-8"?>
<!-- Generator: Adobe Illustrator 22.0.0, SVG Export Plug-In . SVG Version: 6.00 Build 0)  -->
<svg version="1.1" id="Capa_1" xmlns="http://www.w3.org/2000/svg" xmlns:xlink="http://www.w3.org/1999/xlink" x="0px" y="0px"
	 viewBox="0 0 512 512" style="enable-background:new 0 0 512 512;" xml:space="preserve">
<style type="text/css">
	.st0{fill:url(#SVGID_1_);}
	.st1{fill:url(#SVGID_2_);}
	.st2{fill:#B30000;}
</style>
<g>
	<linearGradient id="SVGID_1_" gradientUnits="userSpaceOnUse" x1="400.9338" y1="0.9961" x2="400.9338" y2="511.0039">
		<stop  offset="0.4649" style="stop-color:#B30000"/>
		<stop  offset="0.554" style="stop-color:#AD0000"/>
		<stop  offset="0.6787" style="stop-color:#9A0000"/>
		<stop  offset="0.8243" style="stop-color:#7D0000"/>
		<stop  offset="0.9847" style="stop-color:#530000"/>
		<stop  offset="1" style="stop-color:#4F0000"/>
	</linearGradient>
	<path class="st0" d="M512,256V75.7C512,34.5,478.5,1,437.3,1h-72.7c-41.2,0-74.7,33.5-74.7,74.7V256c0,55.9,41.7,102.2,95.6,109.6
		v115.6h-72.4c-8.3,0-14.9,6.7-14.9,14.9s6.7,14.9,14.9,14.9h166.3c8.3,0,14.9-6.7,14.9-14.9s-6.7-14.9-14.9-14.9h-64V365.6
		C469.9,358.3,512,311.9,512,256z M319.8,75.7c0-24.7,20.1-44.8,44.8-44.8h72.7c24.7,0,44.8,20.1,44.8,44.8v37.9H319.8V75.7z
		 M400.4,336.7c-39.4,0-72.2-28.4-79.3-65.7h23.5c8.3,0,14.9-6.7,14.9-14.9s-6.7-14.9-14.9-14.9h-24.9v-33.9h24.9
		c8.3,0,14.9-6.7,14.9-14.9c0-8.3-6.7-14.9-14.9-14.9h-24.9v-33.9h162.4v33.9h-25.9c-8.3,0-14.9,6.7-14.9,14.9
		c0,8.3,6.7,14.9,14.9,14.9h25.9v33.9h-25.9c-8.3,0-14.9,6.7-14.9,14.9s6.7,14.9,14.9,14.9h24.5
		C473.6,308.3,440.3,336.7,400.4,336.7z"/>
	<linearGradient id="SVGID_2_" gradientUnits="userSpaceOnUse" x1="126.1187" y1="0.9961" x2="126.1187" y2="252.2477">
		<stop  offset="0.4649" style="stop-color:#B30000"/>
		<stop  offset="0.554" style="stop-color:#AD0000"/>
		<stop  offset="0.6787" style="stop-color:#9A0000"/>
		<stop  offset="0.8243" style="stop-color:#7D0000"/>
		<stop  offset="0.9847" style="stop-color:#530000"/>
		<stop  offset="1" style="stop-color:#4F0000"/>
	</linearGradient>
	<path class="st1" d="M239.1,174.1V45.8C239.1,21.1,219,1,194.2,1H44.8C20.1,1,0,21.1,0,45.8v140.5c0,24.7,20.1,44.8,44.8,44.8H180
		l26.5,16.6c4.9,3.1,10.4,4.6,15.9,4.6c6.4,0,12.7-2.1,18.1-6.2c10-7.6,14.1-20.3,10.5-32.3L239.1,174.1z M222.3,222.3l-30.1-18.8
		c-2.4-1.5-5.1-2.3-7.9-2.3H44.8c-8.2,0-14.9-6.7-14.9-14.9V45.8c0-8.2,6.7-14.9,14.9-14.9h149.4c8.2,0,14.9,6.7,14.9,14.9v130.5
		c0,1.5,0.2,2.9,0.6,4.3L222.3,222.3z"/>
	<path class="st2" d="M136.5,137.5h-31.9c-8.3,0-14.9,6.7-14.9,14.9c0,8.3,6.7,14.9,14.9,14.9h31.9c8.3,0,14.9-6.7,14.9-14.9
		C151.4,144.2,144.7,137.5,136.5,137.5z"/>
	<path class="st2" d="M160.4,65.7H80.7c-8.3,0-14.9,6.7-14.9,14.9s6.7,14.9,14.9,14.9h79.7c8.3,0,14.9-6.7,14.9-14.9
		S168.6,65.7,160.4,65.7z"/>
</g>
</svg>
