<?xml version="1.0" encoding="utf-8"?>
<!-- Generator: Adobe Illustrator 22.0.0, SVG Export Plug-In . SVG Version: 6.00 Build 0)  -->
<svg version="1.1" id="Layer_1" xmlns="http://www.w3.org/2000/svg" xmlns:xlink="http://www.w3.org/1999/xlink" x="0px" y="0px"
	 viewBox="0 0 512 512" style="enable-background:new 0 0 512 512;" xml:space="preserve">
<style type="text/css">
	.st0{fill:url(#SVGID_1_);}
	.st1{fill:#FFFFFF;}
</style>
<linearGradient id="SVGID_1_" gradientUnits="userSpaceOnUse" x1="256" y1="-7.4672" x2="256" y2="515.4447">
	<stop  offset="0.4649" style="stop-color:#B21917"/>
	<stop  offset="0.5518" style="stop-color:#AC1817"/>
	<stop  offset="0.6733" style="stop-color:#991715"/>
	<stop  offset="0.8152" style="stop-color:#7C1413"/>
	<stop  offset="0.9715" style="stop-color:#521011"/>
	<stop  offset="1" style="stop-color:#4A0F10"/>
</linearGradient>
<path class="st0" d="M389.3,509H122.7C56.8,509,3,455.2,3,389.3V122.7C3,56.8,56.8,3,122.7,3h266.7C455.2,3,509,56.8,509,122.7
	v266.7C509,455.2,455.2,509,389.3,509z"/>
<path class="st1" d="M446.2,245L292.6,91.4c-6.3-6.3-16.2-6.3-21.9,0c-6.3,6.3-6.3,16.2,0,21.9l127,127H76.8
	c-8.9,0-15.7,6.8-15.7,15.7s6.8,15.7,15.7,15.7h320.8l-127,127c-6.3,6.3-6.3,16.2,0,21.9c3.1,3.1,7.3,4.7,11,4.7s7.8-1.6,11-4.7
	L446.2,267C452.4,260.7,452.4,250.8,446.2,245z"/>
</svg>
