<svg width="53" height="57" viewBox="0 0 53 57" fill="none" xmlns="http://www.w3.org/2000/svg">
<circle cx="45.5" cy="7.5" r="7.5" fill="#3AB75F"/>
<g clip-path="url(#clip0)">
<path d="M36.2723 33.6315C36.6769 33.6315 37.0047 33.3037 37.0047 32.8991V32.5635C37.0047 32.1589 36.6769 31.8311 36.2723 31.8311C35.8677 31.8311 35.5399 32.1589 35.5399 32.5635V32.8991C35.5399 33.3037 35.8677 33.6315 36.2723 33.6315Z" fill="black"/>
<path d="M41.0169 35.5969C41.2043 35.5969 41.3918 35.5254 41.5349 35.3824L41.7722 35.1451C42.0583 34.859 42.0583 34.3953 41.7722 34.1093C41.4861 33.8234 41.0224 33.8234 40.7364 34.1093L40.4991 34.3466C40.213 34.6327 40.213 35.0964 40.4991 35.3824C40.642 35.5254 40.8295 35.5969 41.0169 35.5969Z" fill="black"/>
<path d="M43.3177 40.3416C43.7223 40.3416 44.0501 40.0137 44.0501 39.6091C44.0501 39.2045 43.7223 38.8767 43.3177 38.8767H42.9821C42.5775 38.8767 42.2497 39.2045 42.2497 39.6091C42.2497 40.0137 42.5775 40.3416 42.9821 40.3416H43.3177Z" fill="black"/>
<path d="M29.2267 38.8767C28.8221 38.8767 28.4943 39.2045 28.4943 39.6091C28.4943 40.0137 28.8221 40.3416 29.2267 40.3416H29.5622C29.9668 40.3416 30.2947 40.0137 30.2947 39.6091C30.2947 39.2045 29.9668 38.8767 29.5622 38.8767H29.2267Z" fill="black"/>
<path d="M40.499 44.8717L40.7363 45.109C40.8793 45.252 41.0668 45.3235 41.2542 45.3235C41.4416 45.3235 41.6291 45.252 41.7722 45.109C42.0582 44.8229 42.0582 44.3592 41.7722 44.0732L41.5349 43.8359C41.2488 43.55 40.7851 43.55 40.4991 43.8359C40.2129 44.1219 40.2129 44.5856 40.499 44.8717Z" fill="black"/>
<path d="M35.5399 46.3192V46.6546C35.5399 47.0592 35.8677 47.387 36.2723 47.387C36.6769 47.387 37.0047 47.0592 37.0047 46.6546V46.3192C37.0047 45.9146 36.6769 45.5867 36.2723 45.5867C35.8677 45.5867 35.5399 45.9146 35.5399 46.3192Z" fill="black"/>
<path d="M31.0095 43.836L30.7723 44.0734C30.4863 44.3594 30.4864 44.8232 30.7726 45.1091C30.9155 45.2521 31.1029 45.3234 31.2903 45.3234C31.4778 45.3234 31.6653 45.252 31.8084 45.1088L32.0456 44.8715C32.3315 44.5855 32.3314 44.1217 32.0453 43.8358C31.7592 43.5498 31.2954 43.5498 31.0095 43.836Z" fill="black"/>
<path d="M32.0455 34.3467L31.8083 34.1094C31.5223 33.8231 31.0585 33.8234 30.7726 34.1091C30.4864 34.3951 30.4863 34.8589 30.7723 35.1448L31.0095 35.3821C31.1525 35.5253 31.34 35.5968 31.5275 35.5968C31.7149 35.5968 31.9023 35.5253 32.0453 35.3824C32.3314 35.0965 32.3315 34.6327 32.0455 34.3467Z" fill="black"/>
<path d="M46.3916 31.4235C46.0636 31.6601 45.9894 32.1178 46.2259 32.4461C47.7367 34.5413 48.5351 37.0183 48.5351 39.6091C48.5351 46.3709 43.034 51.8721 36.2723 51.8721C29.5105 51.8721 24.0094 46.3709 24.0094 39.6091C24.0094 32.8474 29.5105 27.3462 36.2723 27.3462C39.2538 27.3462 42.1281 28.4298 44.3656 30.3971C44.6691 30.6641 45.132 30.6346 45.3992 30.3307C45.6663 30.027 45.6367 29.5641 45.3328 29.2971C43.3267 27.533 40.863 26.4044 38.247 26.0246C38.3199 23.4848 38.0362 20.8688 37.4492 18.7503C37.2624 18.0762 37.4535 17.3502 37.9479 16.8558L38.697 16.1068C39.7027 15.101 39.745 13.5127 38.7932 12.4907C38.3104 11.9723 37.6553 11.68 36.9483 11.6674C35.7073 11.6457 35.0097 12.5036 34.9655 12.534C34.3781 13.1214 33.4792 13.2694 32.7289 12.9022C27.7293 10.4567 18.4825 9.94482 11.2202 11.7116C10.8271 11.8072 10.586 12.2033 10.6816 12.5964C10.7772 12.9894 11.1735 13.231 11.5664 13.1349C14.8367 12.3393 18.7065 11.9963 22.4615 12.1712C26.3366 12.3509 29.7544 13.0778 32.0852 14.218C33.3975 14.8598 34.9716 14.5995 36.0017 13.5695C36.0579 13.5286 36.3454 13.1159 36.9224 13.132C37.2283 13.1375 37.512 13.2642 37.7214 13.4889C38.1261 13.9233 38.099 14.633 37.6612 15.0707L36.9122 15.8198C36.0452 16.6869 35.71 17.9596 36.0376 19.1414C36.5803 21.1 36.8455 23.5232 36.7853 25.8916C36.6147 25.8853 36.4438 25.8813 36.2725 25.8813C29.6022 25.8813 24.0287 30.6636 22.7984 36.9794C17.1322 37.2636 11.1328 36.4029 7.37079 34.7506C6.10426 34.1945 4.59084 34.483 3.60488 35.4688L3.37147 35.7022C2.93582 36.1381 2.22681 36.1381 1.79116 35.7022C1.35541 35.2666 1.35541 34.5576 1.79116 34.1218L2.39996 33.513C3.26063 32.6522 3.59804 31.3873 3.28016 30.2118C2.42301 27.0419 2.49977 22.5287 3.46669 19.2366C3.81982 18.0342 3.49101 16.7392 2.60866 15.857L1.79116 15.0396C1.35541 14.6037 1.35541 13.8947 1.79116 13.4591C2.22681 13.0232 2.93582 13.0232 3.37147 13.4591L3.72636 13.814C4.74104 14.8284 6.29205 15.0996 7.58672 14.4891C7.97549 14.3057 8.39972 14.1275 8.84759 13.9596C9.22641 13.8176 9.41831 13.3955 9.27631 13.0167C9.13431 12.6379 8.71214 12.4461 8.33342 12.588C7.84815 12.7698 7.38671 12.9637 6.9617 13.1641C6.22477 13.512 5.34086 13.3567 4.76233 12.778L4.40744 12.4231C3.40048 11.4163 1.76225 11.4163 0.75539 12.4231C-0.251471 13.43 -0.251471 15.0683 0.75539 16.0753L1.57299 16.8928C2.07622 17.3959 2.26334 18.1359 2.06128 18.8237C1.02581 22.3491 0.945532 27.1893 1.86616 30.5941C2.04751 31.2645 1.85522 31.986 1.36419 32.4768L0.75539 33.0857C-0.251471 34.0927 -0.251471 35.731 0.75539 36.7378C1.76235 37.7446 3.40057 37.7446 4.40744 36.7378L4.64084 36.5044C5.20316 35.942 6.06314 35.7759 6.78181 36.0915C10.2809 37.6281 15.3731 38.5003 20.5647 38.5003C21.2404 38.5003 21.9178 38.4846 22.5937 38.4545C22.5619 38.8351 22.5448 39.2199 22.5448 39.6086C22.5448 47.1781 28.7032 53.3364 36.2726 53.3364C43.842 53.3364 50.0003 47.178 50.0003 39.6086C50.0003 36.7083 49.1061 33.9351 47.4144 31.5887C47.1774 31.2611 46.7197 31.1871 46.3916 31.4235Z" fill="black"/>
<path d="M35.5399 38.0427L35.0406 37.6256C34.7303 37.3662 34.2682 37.4077 34.0091 37.718C33.7497 38.0284 33.7911 38.4903 34.1014 38.7496L35.8027 40.1712C36.275 40.5663 37.0048 40.2338 37.0048 39.6092V35.5486C37.0048 35.144 36.677 34.8162 36.2724 34.8162C35.8678 34.8162 35.54 35.144 35.54 35.5486V38.0427H35.5399Z" fill="black"/>
<path d="M41.9048 24.847H43.9625C44.3671 24.847 44.695 24.5192 44.695 24.1146C44.695 23.71 44.3671 23.3821 43.9625 23.3821H43.2996L44.4823 21.6671C44.6369 21.443 44.6544 21.1517 44.5279 20.9108C44.4013 20.6698 44.1515 20.5188 43.8793 20.5188H41.9566C41.552 20.5188 41.2242 20.8466 41.2242 21.2512C41.2242 21.6558 41.552 21.9837 41.9566 21.9837H42.4844L41.3017 23.6988C40.9671 24.1839 41.3156 24.847 41.9048 24.847Z" fill="black"/>
<path d="M46.5266 22.5759H49.2676C49.6722 22.5759 50 22.2481 50 21.8435C50 21.4389 49.6722 21.111 49.2676 21.111H47.9214L49.7598 18.4453C49.9144 18.2213 49.9318 17.93 49.8054 17.6891C49.6788 17.448 49.429 17.2971 49.1568 17.2971H46.5957C46.1911 17.2971 45.8633 17.6249 45.8633 18.0295C45.8633 18.4341 46.1911 18.7619 46.5957 18.7619H47.7619L45.9235 21.4276C45.5889 21.9128 45.9374 22.5759 46.5266 22.5759Z" fill="black"/>
<path d="M32.5741 48.6011C32.4489 48.9857 32.6592 49.3991 33.044 49.5242C34.0847 49.8629 35.171 50.0346 36.2724 50.0346C42.0211 50.0346 46.6979 45.3578 46.6979 39.6091C46.6979 33.8604 42.0211 29.1835 36.2724 29.1835C30.5237 29.1835 25.8467 33.8604 25.8467 39.6091C25.8467 42.9726 27.484 46.148 30.2263 48.1033C30.5558 48.3382 31.0133 48.2615 31.2479 47.9322C31.4828 47.6028 31.4062 47.1454 31.0768 46.9106C28.7192 45.2296 27.3116 42.5001 27.3116 39.6091C27.3116 34.6681 31.3313 30.6484 36.2724 30.6484C41.2133 30.6484 45.2331 34.6681 45.2331 39.6091C45.2331 44.55 41.2133 48.5698 36.2724 48.5698C35.3252 48.5698 34.3915 48.4222 33.4972 48.1313C33.1126 48.006 32.6992 48.2164 32.5741 48.6011Z" fill="black"/>
</g>
<defs>
<clipPath id="clip0">
<rect width="50" height="50" fill="white" transform="translate(0 7)"/>
</clipPath>
</defs>
</svg>
