<?xml version="1.0" encoding="utf-8"?>
<!-- Generator: Adobe Illustrator 22.0.0, SVG Export Plug-In . SVG Version: 6.00 Build 0)  -->
<svg version="1.1" id="Layer_1" xmlns="http://www.w3.org/2000/svg" xmlns:xlink="http://www.w3.org/1999/xlink" x="0px" y="0px"
	 viewBox="0 0 432.7 432.7" style="enable-background:new 0 0 432.7 432.7;" xml:space="preserve">
<style type="text/css">
	.st0{fill:url(#SVGID_1_);}
	.st1{fill:#FFFFFF;}
</style>
<linearGradient id="SVGID_1_" gradientUnits="userSpaceOnUse" x1="216.35" y1="435.3252" x2="216.35" y2="-2.2458" gradientTransform="matrix(1 0 0 -1 0 431.2126)">
	<stop  offset="0.4649" style="stop-color:#3AB75F"/>
	<stop  offset="1" style="stop-color:#3A7E5F"/>
</linearGradient>
<path class="st0" d="M327.9,428.1H104.8C49.7,428.1,4.6,383,4.6,327.9V104.8C4.6,49.7,49.7,4.6,104.8,4.6H328
	c55.1,0,100.1,45.1,100.1,100.1v223.2C428.1,383,383,428.1,327.9,428.1z"/>
<path id="XMLID_938_" class="st1" d="M251.7,180.8l-49.8,49.8L181,209.7c-3.9-3.9-10.2-3.9-14.1,0c-3.9,3.9-3.9,10.2,0,14.1l28,28
	c2,2,4.5,2.9,7.1,2.9s5.1-1,7.1-2.9l56.9-56.9c3.9-3.9,3.9-10.2,0-14.1C262,176.9,255.6,176.9,251.7,180.8z"/>
<g>
	<path id="XMLID_1_" class="st1" d="M102.4,133.4v166c0,17.1,13.9,31,31,31h166c17.1,0,31-13.9,31-31v-43c0-5.5-4.5-10-10-10
		s-10,4.5-10,10v43c0,6.1-4.9,11-11,11h-166c-6.1,0-11-4.9-11-11v-166c0-6.1,4.9-11,11-11h166c6.1,0,11,4.9,11,11v43
		c0,5.5,4.5,10,10,10s10-4.5,10-10v-43c0-17.1-13.9-31-31-31h-166C116.3,102.4,102.4,116.3,102.4,133.4z"/>
	<path id="XMLID_1012_" class="st1" d="M320.3,206.3c-2.6,0-5.2,1.1-7.1,2.9c-1.9,1.9-2.9,4.4-2.9,7.1c0,2.6,1.1,5.2,2.9,7.1
		c1.9,1.9,4.4,2.9,7.1,2.9c2.6,0,5.2-1.1,7.1-2.9c1.9-1.9,2.9-4.4,2.9-7.1s-1.1-5.2-2.9-7.1C325.6,207.4,323,206.3,320.3,206.3z"/>
</g>
</svg>
