<?xml version="1.0" encoding="utf-8"?>
<!-- Generator: Adobe Illustrator 22.0.0, SVG Export Plug-In . SVG Version: 6.00 Build 0)  -->
<svg version="1.1" id="Capa_1" xmlns="http://www.w3.org/2000/svg" xmlns:xlink="http://www.w3.org/1999/xlink" x="0px" y="0px"
	 viewBox="0 0 432.6 432.6" style="enable-background:new 0 0 432.6 432.6;" xml:space="preserve">
<style type="text/css">
	.st0{fill:url(#SVGID_1_);}
	.st1{fill:#FFFFFF;}
</style>
<linearGradient id="SVGID_1_" gradientUnits="userSpaceOnUse" x1="216.294" y1="-8.229" x2="216.294" y2="437.3891">
	<stop  offset="0.4649" style="stop-color:#B30000"/>
	<stop  offset="0.554" style="stop-color:#AD0000"/>
	<stop  offset="0.6787" style="stop-color:#9A0000"/>
	<stop  offset="0.8243" style="stop-color:#7D0000"/>
	<stop  offset="0.9847" style="stop-color:#530000"/>
	<stop  offset="1" style="stop-color:#4F0000"/>
</linearGradient>
<path class="st0" d="M329.9,431.9H102.7c-56.1,0-102-45.9-102-102V102.7c0-56.1,45.9-102,102-102h227.3c56.1,0,102,45.9,102,102
	v227.3C431.9,386,386,431.9,329.9,431.9z"/>
<g>
	<path class="st1" d="M248,76.5c-3.6-1.8-7.8-1.4-11,1.1L143,146.2H79.7c-6,0-10.7,4.6-10.7,10.7v118.8c0,6,4.6,10.7,10.7,10.7H143
		l93.6,68.7c1.8,1.4,3.9,2.1,6.4,2.1c1.8,0,3.2-0.4,5-1.1c3.6-1.8,5.7-5.3,5.7-9.6V86.1C253.7,82.2,251.5,78.3,248,76.5z
		 M135.9,265.1H90.3v-97.5h45.5V265.1z M232.3,325.5l-75.1-55.1V162.2l75.1-55.1V325.5z"/>
	<path class="st1" d="M294.2,260.1c18.1-7.8,28.8-24.2,28.8-43.8s-10.7-35.9-28.8-43.8c-5.3-2.5-11.7,0-14.2,5.3
		c-2.5,5.3,0,11.7,5.3,14.2c10.3,4.6,16,13.5,16,24.6c0,11-5.7,19.9-16,24.6c-5.3,2.5-7.8,8.9-5.3,14.2c1.8,3.9,5.7,6.4,9.6,6.4
		C291.4,261.1,292.8,260.8,294.2,260.1z"/>
	<path class="st1" d="M295.6,133.1c-5.7-1.1-11.4,2.5-12.5,8.5c-1.1,5.7,2.5,11.4,8.5,12.5c29.5,5.7,50.9,32,50.9,62.6
		s-21.3,56.6-50.9,62.6c-5.7,1.1-9.6,6.8-8.5,12.5c1.1,5,5.3,8.5,10.3,8.5c0.7,0,1.4,0,2.1-0.4c39.5-8.2,68-43.1,68-83.6
		S335.1,140.5,295.6,133.1z"/>
</g>
</svg>
