<?xml version="1.0" encoding="utf-8"?>
<!-- Generator: Adobe Illustrator 22.0.0, SVG Export Plug-In . SVG Version: 6.00 Build 0)  -->
<svg version="1.1" id="Layer_1" xmlns="http://www.w3.org/2000/svg" xmlns:xlink="http://www.w3.org/1999/xlink" x="0px" y="0px"
	 viewBox="0 0 512 512" style="enable-background:new 0 0 512 512;" xml:space="preserve">
<style type="text/css">
	.st0{fill:url(#SVGID_1_);}
	.st1{fill:#B30000;}
</style>
<linearGradient id="SVGID_1_" gradientUnits="userSpaceOnUse" x1="256" y1="-8.266183e-05" x2="256" y2="511.9999">
	<stop  offset="0.4649" style="stop-color:#B30000"/>
	<stop  offset="0.554" style="stop-color:#AD0000"/>
	<stop  offset="0.6787" style="stop-color:#9A0000"/>
	<stop  offset="0.8243" style="stop-color:#7D0000"/>
	<stop  offset="0.9847" style="stop-color:#530000"/>
	<stop  offset="1" style="stop-color:#4F0000"/>
</linearGradient>
<path class="st0" d="M332,418c68.4-14,120-75,120-148v-1.5c34.6-7,60.6-38,60-74.7c-0.6-39.2-31.8-71.6-70.9-73.7
	c-43.2-2.3-79.1,32.2-79.1,74.9c0,36.2,25.8,66.5,60,73.5v1.5c0,56.3-38.3,103.7-90,117.2V0H0v512h332V418z M392.2,199.1
	c-2.5-28,20.9-51.4,48.9-48.9c21.5,1.9,38.8,19.2,40.7,40.7c2.5,28-20.9,51.4-48.9,48.9C411.4,237.9,394.1,220.6,392.2,199.1z
	 M181,270v-1.1c51.4-7.2,91-51.1,91-103.9v-45h-61v30h31v15c0,41.4-34.1,75-76,75s-76-33.6-76-75v-15h30v-30H60v45
	c0,52.9,39.6,96.7,91,103.9v1.1c0,49.4,24,93.2,61.1,121H30V90h272v301C235.3,391,181,336.7,181,270z M302,30v30H30V30H302z
	 M302,482H30v-61h121v30h30v-30h121V482z"/>
<path class="st1" d="M422,180h30v30h-30V180z"/>
<path class="st1" d="M511.2,30.8C491.4,10.9,465,0,437,0s-54.4,10.9-74.2,30.8L384,52c14.2-14.2,33-22,53-22s38.8,7.8,53,22
	L511.2,30.8z"/>
<path class="st1" d="M405.2,73.2l21.3,21.2c2.8-2.8,6.6-4.4,10.6-4.4s7.8,1.6,10.6,4.4l21.3-21.2C460.4,64.7,449,60,437,60
	S413.6,64.7,405.2,73.2z"/>
</svg>
