<?xml version="1.0" encoding="utf-8"?>
<!-- Generator: Adobe Illustrator 22.0.0, SVG Export Plug-In . SVG Version: 6.00 Build 0)  -->
<svg version="1.1" id="Layer_1" xmlns="http://www.w3.org/2000/svg" xmlns:xlink="http://www.w3.org/1999/xlink" x="0px" y="0px"
	 viewBox="0 0 432.7 282.4" style="enable-background:new 0 0 432.7 282.4;" xml:space="preserve">
<style type="text/css">
	.st0{fill:url(#SVGID_1_);}
	.st1{fill:#FFFFFF;}
</style>
<linearGradient id="SVGID_1_" gradientUnits="userSpaceOnUse" x1="216.35" y1="-5.6155" x2="216.35" y2="285.5414">
	<stop  offset="0.4649" style="stop-color:#B30000"/>
	<stop  offset="0.554" style="stop-color:#AD0000"/>
	<stop  offset="0.6787" style="stop-color:#9A0000"/>
	<stop  offset="0.8243" style="stop-color:#7D0000"/>
	<stop  offset="0.9847" style="stop-color:#530000"/>
	<stop  offset="1" style="stop-color:#4F0000"/>
</linearGradient>
<path class="st0" d="M349.5,282H83.2c-45.3,0-82.4-37.1-82.4-82.4V82.6c0-45.3,37.1-82.4,82.4-82.4h266.4
	c45.3,0,82.4,37.1,82.4,82.4v116.9C432,244.9,394.9,282,349.5,282z"/>
<g>
	<g>
		<g>
			<path class="st1" d="M340.2,136.2c-2.2-3.1-55.7-75.1-123.9-75.1s-121.6,72-123.9,75.1c-2.1,2.9-2.1,6.9,0,9.8
				c2.2,3.1,55.7,75.1,123.9,75.1S338,149,340.2,146C342.4,143.1,342.4,139.1,340.2,136.2z M216.3,204.5
				c-50.3,0-93.8-47.8-106.7-63.4c12.9-15.6,56.3-63.4,106.7-63.4c50.3,0,93.8,47.8,106.7,63.4C310.1,156.7,266.7,204.5,216.3,204.5
				z"/>
		</g>
	</g>
	<g>
		<g>
			<path class="st1" d="M216.3,91.4c-27.4,0-49.6,22.3-49.6,49.6s22.3,49.6,49.6,49.6s49.6-22.3,49.6-49.6S243.7,91.4,216.3,91.4z
				 M216.3,174.2c-18.2,0-33.1-14.8-33.1-33.1s14.8-33.1,33.1-33.1s33.1,14.8,33.1,33.1S234.6,174.2,216.3,174.2z"/>
		</g>
	</g>
</g>
</svg>
